<svg xmlns="http://www.w3.org/2000/svg" viewBox="0 0 1000 324.68">
  <path d="M651.19 0.5c-70.93 0-134.32 36.77-134.32 104.69 0 77.9 112.42 83.28 112.42 122.42 0 16.45-18.72 31.27-50.73 31.27-45.26 0-79.34-20.61-79.34-20.61l-14.69 68.55s39.12 17.41 91.15 17.41c77.55 0 138.57-38.57 138.57-107.66 0-82.32-112.92-87.04-112.92-123.25 0-12.93 15.67-27.13 48.08-27.13 36.01 0 65.1 14.98 65.1 14.98l14.34-66.32S697.56 0.5 651.19 0.5zM0 5.6l-1.67 9.86S33.45 23.3 62.17 36.65c29.27 11.42 31.59 18.17 36.56 37.48l54.15 209.55h84.33L379.74 5.6H295.92L210.4 218.89 176.07 38.47C173.03 17.63 157.34 5.6 137.77 5.6H0zM410.25 5.6l-65.81 278.08h80.1L490.16 5.6h-79.91zM805.55 5.6c-19.54 0-29.79 10.43-37.35 28.73L638.58 283.68h83.82l16.16-46.05h102.39l9.56 46.05h73.68L859.93 5.6h-54.38zm8.97 78.91l24.88 116.76h-66.32L814.52 84.51z" fill="#1a1f71"/>
</svg>
